<?xml version="1.0" encoding="UTF-8" standalone="no"?>
<!DOCTYPE svg PUBLIC "-//W3C//DTD SVG 1.1//EN" "http://www.w3.org/Graphics/SVG/1.1/DTD/svg11.dtd">
<svg width="100%" height="100%" viewBox="0 0 3866 2147" version="1.1" xmlns="http://www.w3.org/2000/svg" xmlns:xlink="http://www.w3.org/1999/xlink" xml:space="preserve" xmlns:serif="http://www.serif.com/" style="fill-rule:evenodd;clip-rule:evenodd;stroke-linejoin:round;stroke-miterlimit:2;">
    <g transform="matrix(1,0,0,1,-10321.1,152.258)">
        <g transform="matrix(7.99543,0,0,7.99543,11725.3,228.5)">
            <path d="M-43.536,69.457C-68.823,69.412 -89.393,48.078 -89.397,21.844C-89.619,12.189 -89.299,2.399 -88.447,-7.234C-87.724,-15.38 -86.605,-23.591 -85.118,-31.638C-85.026,-32.131 -84.698,-32.546 -84.238,-32.748C-83.781,-32.948 -83.253,-32.91 -82.829,-32.646L-82.827,-32.645C-76.285,-28.549 -69.869,-24.059 -63.687,-19.267C-62.124,-23.708 -60.088,-27.973 -57.613,-31.965C-54.047,-37.714 -49.613,-42.865 -44.437,-47.272L-44.235,-47.396C-44.249,-47.39 -44.262,-47.382 -44.275,-47.374C-44.191,-47.429 -44.108,-47.476 -44.015,-47.514L-44.012,-47.515C-43.924,-47.55 -43.836,-47.573 -43.743,-47.592L-43.741,-47.592C-43.646,-47.61 -43.552,-47.622 -43.455,-47.622C-43.356,-47.622 -43.264,-47.61 -43.169,-47.592L-43.167,-47.592C-43.074,-47.573 -42.986,-47.55 -42.898,-47.515L-42.895,-47.514C-42.8,-47.476 -42.715,-47.427 -42.629,-47.371C-42.643,-47.38 -42.657,-47.388 -42.672,-47.395L-42.48,-47.278L-42.474,-47.273C-37.296,-42.865 -32.863,-37.714 -29.297,-31.965C-26.829,-27.983 -24.798,-23.733 -23.237,-19.309C-17.075,-24.083 -10.678,-28.559 -4.152,-32.645L-4.15,-32.646C-3.726,-32.91 -3.201,-32.948 -2.742,-32.748L-2.74,-32.747C-2.281,-32.545 -1.953,-32.131 -1.861,-31.638C-0.375,-23.591 0.745,-15.38 1.468,-7.234C2.32,2.398 2.639,12.189 2.418,21.865C2.414,48.078 -18.156,69.412 -43.443,69.457C-43.385,69.457 -43.334,69.449 -43.282,69.435L-43.443,69.457L-43.455,69.459L-43.49,69.458L-43.524,69.459L-43.536,69.457L-43.697,69.435C-43.645,69.449 -43.594,69.457 -43.536,69.457ZM0,21.837L-0.608,21.823C-0.387,12.235 -0.703,2.556 -1.547,-6.967C-2.194,-14.275 -3.166,-21.637 -4.439,-28.882C-11.761,-24.195 -18.908,-19.025 -25.712,-13.489C-32.026,-8.353 -36.943,-4.309 -41.286,-0.293C-34.337,6.474 -28.946,13.459 -25.265,22.531C-21.719,31.273 -20.172,40.941 -20.674,51.268C-20.716,52.104 -21.445,52.77 -22.27,52.705C-23.1,52.657 -23.736,51.951 -23.696,51.121C-23.217,41.244 -24.685,32.008 -28.068,23.67C-34.24,8.458 -45.589,-0.736 -61.267,-13.489C-68.075,-19.026 -75.222,-24.198 -82.54,-28.882C-83.813,-21.637 -84.785,-14.275 -85.432,-6.967C-86.276,2.556 -86.592,12.235 -86.371,21.802L-86.371,21.816C-86.371,46.409 -67.143,66.413 -43.49,66.432C-19.836,66.413 -0.608,46.41 -0.608,21.837L0,21.837ZM-55.041,-30.371C-57.582,-26.273 -59.638,-21.875 -61.17,-17.289C-60.563,-16.807 -59.959,-16.324 -59.358,-15.836C-53.446,-11.027 -48.143,-6.711 -43.48,-2.386C-39.047,-6.495 -34.053,-10.605 -27.622,-15.836C-27.003,-16.339 -26.379,-16.836 -25.755,-17.332C-27.284,-21.901 -29.334,-26.283 -31.868,-30.371C-35.04,-35.484 -38.938,-40.093 -43.455,-44.102C-47.972,-40.093 -51.869,-35.484 -55.041,-30.371ZM-51.365,219.498L-50.77,219.624C-50.921,220.334 -51.557,220.83 -52.251,220.83C-52.365,220.83 -52.462,220.825 -52.563,220.798C-53.37,220.637 -53.896,219.846 -53.745,219.034L-53.743,219.027C-49.066,195.459 -47.023,159.913 -63.823,124.413C-72.005,107.123 -84.28,81.058 -110.613,74.232C-130.418,69.107 -153.019,76.168 -165.116,85.801C-169.989,89.691 -172.693,93.641 -172.597,97.017C-172.514,99.932 -170.175,102.899 -166.421,105.681C-157.305,112.439 -139.841,117.912 -123.643,117.962L-123.437,117.962C-109.243,117.962 -95.248,113.62 -81.852,105.055C-81.14,104.6 -80.202,104.817 -79.762,105.513C-79.31,106.223 -79.51,107.155 -80.22,107.609C-94.124,116.489 -108.667,120.987 -123.437,120.987L-123.656,120.987C-137.456,120.944 -153.194,117.02 -163.654,111.18C-167.897,108.811 -171.276,106.122 -173.337,103.257C-174.759,101.28 -175.562,99.214 -175.622,97.106C-175.744,92.875 -172.715,87.988 -166.996,83.438C-154.319,73.337 -130.617,65.929 -109.848,71.309C-93.43,75.564 -82.076,87.174 -73.908,99.427C-65.625,92.961 -57.616,84.71 -51.33,76.17C-50.83,75.49 -49.894,75.351 -49.214,75.85C-48.534,76.348 -48.393,77.286 -48.893,77.967C-55.397,86.801 -63.688,95.322 -72.26,101.974C-67.557,109.458 -63.988,116.991 -61.122,123.042C-43.943,159.353 -46.008,195.589 -50.769,219.617L-51.365,219.498ZM36.638,120.987C19.809,120.988 3.398,115.204 -12.158,103.776C-16.58,110.904 -20.023,118.183 -22.939,124.34C-39.777,159.912 -37.729,195.459 -33.058,219.026C-32.895,219.846 -33.427,220.641 -34.246,220.804C-34.347,220.824 -34.445,220.833 -34.542,220.833C-35.25,220.833 -35.884,220.334 -36.024,219.615C-40.787,195.59 -42.858,159.349 -25.709,123.121C-17.768,106.347 -4.494,78.447 23.054,71.308C43.824,65.925 67.525,73.334 80.202,83.435C85.921,87.992 88.946,92.871 88.827,97.106C88.767,99.214 87.965,101.28 86.542,103.258C84.481,106.123 81.101,108.813 76.858,111.182C66.397,117.022 50.657,120.946 36.859,120.987L36.638,120.987L36.638,120.947C36.411,120.859 36.249,120.638 36.249,120.38C36.249,120.38 36.249,120.379 36.249,120.378C36.176,120.378 36.103,120.377 36.03,120.377C36.03,120.378 36.03,120.379 36.03,120.379C36.03,120.715 36.302,120.987 36.638,120.987ZM36.638,118L36.641,117.999L36.641,117.961L36.851,117.961C53.047,117.913 70.51,112.438 79.626,105.682C83.381,102.9 85.719,99.934 85.801,97.02C85.897,93.645 83.196,89.689 78.317,85.801C66.225,76.17 43.62,69.106 23.813,74.237C8.021,78.33 -2.705,89.356 -10.525,101.221C4.532,112.326 20.393,117.961 36.638,117.961L36.638,118ZM-16.372,98.58C-16.671,98.931 -17.096,99.112 -17.524,99.112C-17.87,99.112 -18.219,98.994 -18.505,98.752C-25.682,92.645 -32.392,85.456 -37.907,77.964C-38.401,77.29 -38.256,76.342 -37.584,75.848C-36.911,75.353 -35.966,75.496 -35.47,76.17C-30.091,83.478 -23.546,90.49 -16.543,96.447C-15.908,96.987 -15.831,97.944 -16.372,98.58ZM189.625,174.469C192.315,177.031 193.743,180.149 193.915,183.819L193.915,183.828L193.915,219.416C193.915,219.528 193.825,219.619 193.713,219.619L191.189,219.619C191.077,219.619 190.986,219.528 190.986,219.416L190.986,184.463C190.903,181.571 189.826,179.029 187.76,176.837C185.69,174.644 182.706,173.428 178.811,173.179C175.399,173.18 172.196,173.973 169.199,175.552C166.199,177.136 163.741,179.283 161.824,181.99C159.912,184.692 158.873,187.705 158.707,191.027L158.707,219.416C158.707,219.528 158.617,219.619 158.505,219.619L156.107,219.619C155.995,219.619 155.904,219.528 155.904,219.416L155.904,184.461C155.734,181.57 154.617,179.029 152.551,176.837C150.481,174.644 147.497,173.428 143.602,173.179C140.107,173.18 136.839,173.992 133.802,175.615C130.76,177.24 128.303,179.449 126.43,182.238C124.558,185.025 123.624,188.204 123.624,191.779L123.624,219.416C123.624,219.528 123.534,219.619 123.422,219.619L120.898,219.619C120.786,219.619 120.695,219.528 120.695,219.416L120.695,171.714C120.695,171.602 120.786,171.511 120.898,171.511L122.791,171.511C122.901,171.511 122.99,171.599 122.993,171.709L123.287,183.226C124.896,179.68 127.363,176.794 130.691,174.574C134.637,171.945 138.986,170.628 143.739,170.628C146.379,170.628 148.829,171.203 151.088,172.353C153.344,173.504 155.197,175.038 156.647,176.955C157.857,178.558 158.588,180.327 158.85,182.256C160.504,178.755 162.962,176.022 166.224,174.064C170.042,171.773 174.241,170.628 178.822,170.628C183.339,170.628 186.94,171.913 189.625,174.469ZM102.927,182.842C105.174,186.659 106.299,190.859 106.299,195.439C106.299,200.105 105.173,204.326 102.927,208.099C100.678,211.874 97.647,214.864 93.831,217.067C90.014,219.274 85.773,220.376 81.11,220.376C76.444,220.376 72.225,219.293 68.452,217.131C64.677,214.968 61.666,212.023 59.419,208.289C57.171,204.557 56.046,200.273 56.046,195.439C56.046,190.859 57.17,186.659 59.418,182.842C61.665,179.027 64.675,175.996 68.449,173.748C72.223,171.501 76.443,170.375 81.11,170.375C85.773,170.375 90.016,171.501 93.832,173.747C97.648,175.995 100.678,179.027 102.927,182.842ZM103.244,195.439C103.244,191.356 102.244,187.624 100.243,184.247C98.241,180.869 95.57,178.159 92.235,176.114C88.902,174.073 85.192,173.052 81.11,173.052C76.86,173.052 73.068,174.135 69.736,176.301C66.398,178.472 63.77,181.265 61.852,184.685C59.934,188.104 58.975,191.688 58.975,195.439C58.975,199.609 59.954,203.381 61.914,206.757C63.872,210.135 66.541,212.824 69.918,214.825C73.295,216.825 77.024,217.825 81.11,217.825C85.192,217.825 88.903,216.825 92.236,214.825C95.571,212.824 98.242,210.134 100.243,206.756C102.244,203.38 103.244,199.609 103.244,195.439ZM307.605,171.831L275.718,216.942L306.809,216.942C306.921,216.942 307.011,217.033 307.011,217.145L307.011,219.416C307.011,219.528 306.921,219.619 306.809,219.619L270.717,219.619C270.641,219.619 270.571,219.576 270.537,219.509C270.502,219.442 270.507,219.36 270.551,219.299L302.597,174.188L276.522,174.188C274.456,174.188 272.844,173.817 271.682,173.085C270.503,172.344 269.883,170.673 269.883,168.054L269.883,167.297C269.883,167.185 269.974,167.094 270.086,167.094L272.232,167.094C272.344,167.094 272.434,167.185 272.434,167.297L272.434,168.811C272.434,169.591 272.745,170.231 273.368,170.737C274.013,171.262 275.024,171.511 276.396,171.511L307.44,171.511C307.515,171.511 307.585,171.554 307.62,171.621C307.654,171.688 307.649,171.769 307.605,171.831ZM256.269,171.511L258.161,171.511C258.273,171.511 258.363,171.602 258.363,171.714L258.363,219.416C258.363,219.528 258.273,219.619 258.161,219.619L255.764,219.619C255.652,219.619 255.561,219.528 255.561,219.416L255.56,206.741C254.808,208.281 253.877,209.73 252.765,211.089C251.238,212.955 249.458,214.587 247.423,215.987C245.387,217.386 243.161,218.467 240.744,219.23C238.326,219.994 235.761,220.376 233.049,220.376C228.467,220.376 224.309,219.274 220.578,217.066C216.845,214.863 213.856,211.895 211.61,208.163C209.361,204.43 208.237,200.232 208.237,195.565C208.237,190.223 209.385,185.688 211.675,181.956C213.966,178.222 217,175.38 220.778,173.427C224.547,171.478 228.764,170.502 233.427,170.502C238.432,170.502 242.991,171.923 247.108,174.765C250.856,177.356 253.668,180.633 255.55,184.596L256.066,171.706C256.07,171.597 256.16,171.511 256.269,171.511ZM252.437,207.51C254.436,204.303 255.476,200.656 255.561,196.573L255.56,191.417C254.89,188.008 253.497,184.931 251.375,182.186C249.248,179.433 246.619,177.222 243.49,175.552C240.365,173.886 236.967,173.052 233.301,173.052C229.213,173.052 225.481,173.971 222.102,175.804C218.728,177.638 216.061,180.241 214.105,183.615C212.144,186.993 211.166,190.935 211.166,195.439C211.166,199.609 212.166,203.38 214.167,206.756C216.168,210.134 218.837,212.824 222.173,214.825C225.506,216.825 229.216,217.825 233.301,217.825C237.386,217.825 241.098,216.909 244.434,215.073C247.767,213.241 250.436,210.72 252.437,207.51ZM-1.737,130.623L55.808,130.623C55.92,130.623 56.01,130.714 56.01,130.826L56.01,133.224C56.01,133.336 55.92,133.427 55.808,133.427L28.499,133.427L28.499,219.416C28.499,219.528 28.409,219.619 28.297,219.619L25.774,219.619C25.662,219.619 25.571,219.528 25.571,219.416L25.571,133.427L-1.737,133.427C-1.849,133.427 -1.94,133.336 -1.94,133.224L-1.94,130.826C-1.94,130.714 -1.849,130.623 -1.737,130.623ZM99.209,51.915C98.493,52.784 97.659,53.545 96.708,54.199C95.742,54.863 94.686,55.377 93.538,55.739C92.392,56.101 91.176,56.284 89.89,56.284C87.711,56.284 85.735,55.757 83.961,54.708C82.192,53.662 80.776,52.256 79.711,50.488C78.641,48.713 78.103,46.717 78.103,44.498C78.103,41.966 78.658,39.82 79.743,38.052C80.836,36.271 82.284,34.917 84.085,33.985C85.865,33.065 87.856,32.6 90.058,32.6C92.44,32.6 94.61,33.276 96.568,34.629C97.641,35.37 98.55,36.23 99.3,37.209L99.435,33.829C99.452,33.394 99.81,33.05 100.245,33.05L101.089,33.05C101.536,33.05 101.899,33.413 101.899,33.861L101.899,55.135C101.899,55.583 101.536,55.946 101.089,55.946L100.02,55.946C99.572,55.946 99.209,55.583 99.209,55.135L99.209,51.915ZM94.62,52.568C95.996,51.811 97.099,50.77 97.925,49.444C98.749,48.123 99.173,46.62 99.209,44.938L99.209,42.719C98.927,41.338 98.355,40.088 97.493,38.972C96.606,37.824 95.511,36.904 94.207,36.208C92.917,35.521 91.515,35.178 90.002,35.178C88.304,35.178 86.753,35.557 85.351,36.318C83.964,37.071 82.868,38.142 82.064,39.53C81.25,40.933 80.85,42.572 80.85,44.442C80.85,46.165 81.26,47.726 82.088,49.122C82.918,50.523 84.026,51.64 85.41,52.47C86.784,53.296 88.316,53.705 90.002,53.705C91.696,53.705 93.236,53.329 94.62,52.568ZM73.589,33.53C74.953,32.988 76.377,32.697 77.862,32.657C78.089,32.651 78.308,32.74 78.466,32.902C78.624,33.065 78.707,33.286 78.694,33.513L78.637,34.526C78.613,34.948 78.269,35.281 77.846,35.29C76.326,35.325 74.925,35.677 73.648,36.351C72.384,37.016 71.374,37.911 70.623,39.039C69.884,40.146 69.521,41.423 69.521,42.866L69.521,55.135C69.521,55.583 69.158,55.946 68.711,55.946L67.585,55.946C67.137,55.946 66.774,55.583 66.774,55.135L66.774,33.861C66.774,33.413 67.137,33.05 67.585,33.05L68.429,33.05C68.868,33.05 69.228,33.401 69.239,33.84L69.31,36.599C69.516,36.345 69.736,36.102 69.972,35.871C71.006,34.858 72.211,34.077 73.589,33.53ZM56.947,21.658C58.685,23.71 59.955,25.939 60.756,28.342C61.553,30.736 61.951,33.101 61.951,35.437C61.951,38.557 61.411,41.372 60.338,43.887C59.262,46.41 57.793,48.572 55.935,50.37C54.076,52.171 51.954,53.551 49.568,54.508C47.183,55.467 44.68,55.946 42.062,55.946L31.143,55.946C30.695,55.946 30.332,55.583 30.332,55.135L30.332,15.626C30.332,15.178 30.695,14.815 31.143,14.815L40.204,14.815C44.086,14.815 47.404,15.445 50.161,16.688C52.943,17.942 55.203,19.601 56.947,21.658ZM57.806,42.829C58.741,40.635 59.204,38.151 59.204,35.38C59.204,33.326 58.852,31.245 58.149,29.136C57.45,27.041 56.338,25.116 54.815,23.361C53.295,21.61 51.318,20.21 48.886,19.156C46.424,18.087 43.454,17.562 39.979,17.562L33.079,17.562L33.079,53.255L41.555,53.255C43.964,53.255 46.241,52.843 48.382,52.015C50.511,51.193 52.382,50.003 53.992,48.446C55.605,46.888 56.874,45.015 57.806,42.829ZM126.183,32.426L128.881,32.426L128.881,127.121L126.183,127.121L126.183,32.426ZM230.219,81.82C232.55,79.535 235.269,77.774 238.379,76.54C241.483,75.307 244.725,74.645 248.106,74.553C248.163,74.552 248.217,74.574 248.257,74.615C248.296,74.655 248.317,74.711 248.314,74.767L248.177,77.215C248.171,77.321 248.085,77.404 247.979,77.407C244.021,77.497 240.378,78.418 237.052,80.171C233.727,81.924 231.076,84.281 229.101,87.246C227.127,90.206 226.143,93.616 226.143,97.471L226.143,127.123C226.143,127.235 226.053,127.326 225.941,127.326L223.22,127.326C223.108,127.326 223.017,127.235 223.017,127.123L223.017,75.708C223.017,75.596 223.108,75.505 223.22,75.505L225.26,75.505C225.37,75.505 225.459,75.593 225.462,75.703L225.79,88.547C226.812,85.961 228.285,83.716 230.219,81.82ZM307.794,75.708L307.794,127.123C307.794,127.235 307.704,127.326 307.592,127.326L305.007,127.326C304.895,127.326 304.804,127.235 304.804,127.123L304.804,113.393C303.988,115.075 302.977,116.657 301.763,118.137C300.119,120.148 298.201,121.906 296.008,123.413C293.816,124.92 291.417,126.086 288.814,126.908C286.21,127.73 283.446,128.142 280.524,128.142C275.59,128.142 271.111,126.955 267.091,124.576C263.07,122.203 259.85,119.006 257.431,114.986C255.008,110.965 253.797,106.442 253.797,101.415C253.797,95.661 255.034,90.775 257.5,86.755C259.968,82.733 263.237,79.672 267.305,77.568C271.366,75.469 275.909,74.417 280.932,74.417C286.324,74.417 291.235,75.948 295.669,79.009C299.724,81.812 302.762,85.362 304.79,89.657L305.349,75.7C305.353,75.591 305.443,75.505 305.552,75.505L307.592,75.505C307.704,75.505 307.794,75.596 307.794,75.708ZM301.435,114.298C303.591,110.839 304.713,106.906 304.804,102.502L304.803,96.943C304.082,93.266 302.578,89.946 300.29,86.985C297.995,84.016 295.16,81.633 291.786,79.831C288.415,78.033 284.75,77.135 280.796,77.135C276.387,77.135 272.362,78.125 268.719,80.102C265.079,82.08 262.203,84.888 260.092,88.528C257.978,92.17 256.923,96.422 256.923,101.279C256.923,105.777 258.001,109.844 260.159,113.486C262.318,117.128 265.196,120.03 268.794,122.188C272.389,124.345 276.39,125.424 280.796,125.424C285.202,125.424 289.205,124.436 292.804,122.456C296.398,120.48 299.277,117.76 301.435,114.298ZM201.173,75.505L203.213,75.505C203.325,75.505 203.415,75.596 203.415,75.708L203.415,127.123C203.415,127.235 203.325,127.326 203.213,127.326L200.628,127.326C200.516,127.326 200.425,127.235 200.425,127.123L200.425,113.393C199.609,115.075 198.598,116.657 197.384,118.137C195.74,120.148 193.821,121.906 191.629,123.413C189.437,124.92 187.038,126.086 184.435,126.908C181.831,127.73 179.067,128.142 176.145,128.142C171.21,128.142 166.731,126.955 162.711,124.576C158.691,122.203 155.471,119.006 153.052,114.986C150.629,110.965 149.418,106.442 149.418,101.415C149.418,95.661 150.655,90.775 153.121,86.755C155.589,82.733 158.857,79.672 162.926,77.568C166.987,75.469 171.53,74.417 176.553,74.417C181.944,74.417 186.855,75.948 191.29,79.009C195.345,81.812 198.383,85.362 200.411,89.657L200.97,75.7C200.974,75.591 201.064,75.505 201.173,75.505ZM197.056,114.298C199.212,110.839 200.334,106.906 200.425,102.502L200.424,96.943C199.702,93.266 198.199,89.946 195.911,86.985C193.616,84.016 190.781,81.633 187.407,79.831C184.036,78.033 180.371,77.135 176.417,77.135C172.008,77.135 167.983,78.125 164.339,80.102C160.7,82.08 157.824,84.888 155.713,88.528C153.599,92.17 152.544,96.422 152.544,101.279C152.544,105.777 153.622,109.844 155.78,113.486C157.939,117.128 160.817,120.03 164.415,122.188C168.01,124.345 172.011,125.424 176.417,125.424C180.823,125.424 184.826,124.436 188.425,122.456C192.019,120.48 194.898,117.76 197.056,114.298Z" style="fill:white;"/>
        </g>
    </g>
</svg>
